HIERARCHY
ROOT hip
{
	OFFSET 0.000000 0.000000 0.000000 
	CHANNELS 6 Xposition Yposition Zposition Xrotation Zrotation Yrotation
	JOINT abdomen
	{
		OFFSET 0.000000 3.402643 0.000000 
		CHANNELS 3 Xrotation Zrotation Yrotation
		JOINT chest
		{
			OFFSET 0.000000 8.438565 -0.680529 
			CHANNELS 3 Xrotation Zrotation Yrotation
			JOINT neck
			{
				OFFSET 0.000000 10.207942 -0.272212 
				CHANNELS 3 Xrotation Zrotation Yrotation
				JOINT head
				{
					OFFSET 0.000000 3.130431 0.000000 
					CHANNELS 3 Xrotation Zrotation Yrotation
					End Site
					{
						OFFSET 0.000000 3.130435 0.000000 
					}
				}
			}
			JOINT lCollar
			{
				OFFSET 3.470700 6.669187 -0.816635 
				CHANNELS 3 Yrotation Zrotation Xrotation
				JOINT lShldr
				{
					OFFSET 3.198488 0.000000 0.000000 
					CHANNELS 3 Zrotation Yrotation Xrotation
					JOINT lForeArm
					{
						OFFSET 10.139888 0.000000 0.000000 
						CHANNELS 3 Yrotation Zrotation Xrotation
						JOINT lHand
						{
							OFFSET 8.370511 0.000000 0.000000 
							CHANNELS 3 Zrotation Yrotation Xrotation
							End Site
							{
								OFFSET 4.083176 0.000000 0.000000 
							}
						}
					}
				}
			}
			JOINT rCollar
			{
				OFFSET -3.470700 6.669187 -0.816635 
				CHANNELS 3 Yrotation Zrotation Xrotation
				JOINT rShldr
				{
					OFFSET -3.198488 0.000000 0.000000 
					CHANNELS 3 Zrotation Yrotation Xrotation
					JOINT rForeArm
					{
						OFFSET -10.139888 0.000000 0.000000 
						CHANNELS 3 Yrotation Zrotation Xrotation
						JOINT rHand
						{
							OFFSET -8.370511 0.000000 0.000000 
							CHANNELS 3 Zrotation Yrotation Xrotation
							End Site
							{
								OFFSET -4.083176 0.000000 0.000000 
							}
						}
					}
				}
			}
		}
	}
	JOINT lThigh
	{
		OFFSET 5.308129 -1.633274 1.361059 
		CHANNELS 3 Xrotation Zrotation Yrotation
		JOINT lShin
		{
			OFFSET -2.041588 -20.007561 0.000000 
			CHANNELS 3 Xrotation Zrotation Yrotation
			JOINT lFoot
			{
				OFFSET 0.000000 -19.190928 -1.224953 
				CHANNELS 3 Xrotation Yrotation Zrotation
				End Site
				{
					OFFSET 0.000000 -2.449906 4.627600 
				}
			}
		}
	}
	JOINT rThigh
	{
		OFFSET -5.308129 -1.633274 1.361059 
		CHANNELS 3 Xrotation Zrotation Yrotation
		JOINT rShin
		{
			OFFSET 2.041588 -20.007561 0.000000 
			CHANNELS 3 Xrotation Zrotation Yrotation
			JOINT rFoot
			{
				OFFSET 0.000000 -19.190928 -1.224953 
				CHANNELS 3 Xrotation Yrotation Zrotation
				End Site
				{
					OFFSET 0.000000 -2.449906 4.627600 
				}
			}
		}
	}
}
MOTION
Frames: 6
Frame Time: 0.033333
6.498057 51.222309 -91.605659 -6.875000 -0.361328 -121.074211 19.308811 -11.654559 0.457916 -18.251953 7.324219 3.839136 51.063168 8.107644 2.471410 -23.857424 5.585938 -48.203129 2.000000 -2.000000 0.000000 -88.818359 28.789063 -29.839046 -67.790764 -0.902567 -2.613846 40.932686 35.411659 16.368752 -2.000000 2.000000 0.000000 97.597656 11.093750 -64.470779 70.569260 0.678764 -2.803107 42.070614 -4.584917 -72.533981 -13.004069 3.855784 7.468684 28.126053 -4.702162 -2.581712 -5.417990 -2.029235 -0.285776 -2.434277 -31.235764 -31.910521 42.730633 3.196222 3.283247 -4.903194 -0.488820 -10.735574 
6.536868 51.253822 -91.615021 -7.031250 0.000000 -120.966805 19.161293 -11.578025 0.309319 -18.242188 7.500000 3.692681 51.063168 8.107644 2.471410 -23.330082 5.507812 -48.154297 2.000000 -2.000000 0.000000 -89.121094 29.443361 -30.332033 -68.162552 -1.255802 -2.632410 40.943443 35.548958 16.879967 -2.000000 2.000000 0.000000 97.880859 10.937499 -64.150383 70.569260 0.678764 -2.803107 41.852886 -5.152748 -72.481369 -13.518070 3.854326 7.456746 28.466835 -4.672883 -2.613010 -4.863095 -2.089280 0.028185 -2.969410 -31.308659 -31.592648 43.088970 3.348864 3.221798 -3.990024 -0.976175 -10.669177 
6.582610 51.293221 -91.618149 -7.216797 0.341797 -120.810539 18.985514 -11.578026 0.309319 -18.232424 7.675781 3.730469 51.063168 8.107644 2.471410 -22.783205 5.585938 -47.978519 2.000000 -2.000000 0.000000 -89.042969 29.931641 -30.263670 -67.626503 -1.043017 -2.674123 40.743801 35.726879 16.515892 -2.000000 2.000000 0.000000 97.998047 10.654297 -63.642582 70.562042 0.527859 -2.899839 41.885201 -5.075865 -72.646980 -14.091631 3.867321 7.271555 28.663544 -4.681491 -2.631253 -4.289101 -2.117482 -0.037009 -3.535791 -31.141445 -31.600204 43.256771 3.332992 3.218908 -3.648174 -1.190335 -10.911329 
6.642379 51.301090 -91.595596 -7.402343 0.869141 -120.712746 19.012939 -11.485512 0.147804 -18.232424 7.675781 3.730469 51.063168 8.107644 2.471410 -22.607420 5.566406 -47.792023 2.000000 -2.000000 0.000000 -88.789063 30.156252 -30.117186 -67.624138 -1.213976 -2.585951 41.027603 35.405621 17.009773 -2.000000 2.000000 0.000000 98.496094 10.654297 -63.425930 71.076492 0.266726 -2.445540 42.034054 -5.003702 -72.816452 -14.757977 4.020207 7.410810 29.004795 -4.653656 -2.633618 -4.397018 -2.236349 -0.121226 -4.084129 -30.992697 -31.457209 43.411728 3.274346 3.354126 -3.466625 -1.272597 -10.577971 
6.715652 51.308971 -91.536331 -7.568359 1.386719 -120.947021 19.012939 -11.485512 0.147804 -18.398438 7.851563 3.740235 51.063168 8.107644 2.471410 -22.617189 5.410156 -47.685551 2.000000 -2.000000 0.000000 -89.101563 30.517578 -29.946213 -67.790764 -0.902567 -2.613846 40.745163 35.384743 16.762291 -2.000000 2.000000 0.000000 98.681641 10.488280 -63.437500 71.076492 0.266726 -2.445540 42.406704 -4.930899 -72.976326 -15.295772 4.020675 7.428471 29.183908 -4.644157 -2.655653 -4.341870 -2.353696 -0.371004 -4.953121 -31.090570 -31.202097 43.428761 3.137538 3.323479 -3.592878 -1.143223 -10.277283 
6.819116 51.308971 -91.434845 -7.744140 1.728516 -121.357124 19.333385 -11.401296 0.369042 -18.574219 7.861328 3.710938 51.063168 8.107644 2.471410 -23.388676 5.039062 -47.841797 2.000000 -2.000000 0.000000 -88.730469 30.410156 -29.243103 -67.634155 -1.234040 -2.594562 40.843861 35.153965 16.872162 -2.000000 2.000000 0.000000 98.652344 10.185547 -63.701172 71.089676 0.508925 -2.910713 42.660744 -4.433052 -72.831161 -16.011065 4.197434 7.380777 28.998692 -4.556346 -2.619321 -4.303519 -2.241085 -0.746313 -5.704553 -30.866205 -30.835230 43.428761 3.137587 3.323497 -4.063566 -1.040861 -10.519919 
